<?xml version="1.0" encoding="UTF-8"?>
<svg width="50px" height="50px" viewBox="0 0 50 50" version="1.1" xmlns="http://www.w3.org/2000/svg" xmlns:xlink="http://www.w3.org/1999/xlink">
    <title>Amex_acceptancemark_50x50</title>
    <g id="Page-1" stroke="none" stroke-width="1" fill="none" fill-rule="evenodd">
        <g id="Amex_acceptancemark_50x50">
            <polygon id="Shape" fill="#FFFFFF" fill-rule="nonzero" points="50 0 0 0 0 50 50 50"></polygon>
            <path d="M25.0930414,18.1130368 L21.2948396,18.1130368 L23.1939405,13.5354022 L25.0930414,18.1130368 Z M27.5916246,24.0501324 L31.8892892,24.0501324 L25.7128236,10.0571358 L20.7951652,10.0571358 L14.6182767,24.0501324 L18.8161334,24.0501324 L19.9755555,21.2514908 L26.412114,21.2514908 L27.5916246,24.0501324 Z M46.2218867,24.0501324 L50,24.0501324 L50,10.0571358 L44.1229584,10.0571358 L40.9845044,18.7725731 L37.8661389,10.0571358 L31.8892892,10.0571358 L31.8892892,24.0501324 L35.6671911,24.0501324 L35.6671911,14.255204 L39.2655654,24.0501324 L42.6237239,24.0501324 L46.2218867,14.234904 L46.2218867,24.0501324 Z M23.7946916,36.8350715 L23.7946916,34.6562122 L31.6905191,34.6562122 L31.6905191,31.4978812 L23.7946916,31.4978812 L23.7946916,29.3190219 L31.8903465,29.3190219 L31.8903465,26.0807599 L19.9766128,26.0807599 L19.9766128,40.0733335 L31.8903465,40.0733335 L31.8903465,36.8350715 L23.7946916,36.8350715 Z M46.1576036,33.0427906 L50,37.1306893 L50,28.989148 L46.1576036,33.0427906 Z M44.9840138,40.0733335 L50,40.0733335 L43.3646714,33.0370812 L50,26.0807599 L45.0637333,26.0807599 L40.9661076,30.558375 L36.9078129,26.0807599 L31.8907695,26.0807599 L38.4871899,33.0770467 L31.8907695,40.0733335 L36.7682509,40.0733335 L40.8861766,35.5557529 L44.9840138,40.0733335 Z M50,50 L50,42.0773174 L43.9679599,42.0773174 L40.8622819,38.6432456 L37.7411674,42.0773174 L17.8527325,42.0773174 L17.8527325,26.072513 L11.4335135,26.072513 L19.3957387,8.05336344 L27.0746107,8.05336344 L29.8157358,14.2264457 L29.8157358,8.05336344 L39.3205444,8.05336344 L40.9709711,12.7052196 L42.6319707,8.05336344 L50,8.05336344 L50,0 L0,0 L0,50 L50,50 L50,50 Z" id="Fill-18" fill="#216EA9"></path>
        </g>
    </g>
</svg>