<?xml version="1.0" encoding="UTF-8"?>
<svg width="80px" height="50px" viewBox="0 0 80 50" version="1.1" xmlns="http://www.w3.org/2000/svg" xmlns:xlink="http://www.w3.org/1999/xlink">
    <title>Blik_acceptancemark_80x50</title>
    <defs>
        <linearGradient x1="50%" y1="100%" x2="50%" y2="0%" id="linearGradient-1">
            <stop stop-color="#4D4D4F" offset="0%"></stop>
            <stop stop-color="#000000" offset="100%"></stop>
        </linearGradient>
        <linearGradient x1="0.838585795%" y1="0%" x2="99.1614142%" y2="100%" id="linearGradient-2">
            <stop stop-color="#ED4706" offset="0%"></stop>
            <stop stop-color="#F0689D" offset="100%"></stop>
        </linearGradient>
    </defs>
    <g id="Page-1" stroke="none" stroke-width="1" fill="none" fill-rule="evenodd">
        <g id="Blik_acceptancemark_80x50">
            <rect id="Rectangle" fill="#FFFFFF" fill-rule="nonzero" x="0.38" y="0.38" width="79.25" height="49.25"></rect>
            <path d="M79.25,0.75 L79.25,49.25 L0.75,49.25 L0.75,0.75 L79.25,0.75 M80,0 L0,0 L0,50 L80,50 L80,0 Z" id="Shape" fill="#BFBFBF" fill-rule="nonzero"></path>
            <g id="blik" transform="translate(16.000000, 12.000000)">
                <path d="M4.07004248,0 C1.82228758,0 0,1.83776398 0,4.1046087 L0,4.1046087 L0,21.8953913 C0,24.162236 1.82228758,26 4.07004248,26 L4.07004248,26 L44.9299575,26 C47.1777124,26 49,24.162236 49,21.8953913 L49,21.8953913 L49,4.1046087 C49,1.83776398 47.1777124,0 44.9299575,0 L44.9299575,0 L4.07004248,0 Z" id="Fill-1" fill="url(#linearGradient-1)"></path>
                <path d="M8.72712418,3.88922857 L8.72712418,10.8420484 C9.61520915,10.3603217 10.630598,10.0864335 11.7095588,10.0864335 C15.1917614,10.0864335 18.0147059,12.9333528 18.0147059,16.4451292 C18.0147059,19.9569056 15.1917614,22.8038248 11.7095588,22.8038248 C8.22735621,22.8038248 5.40441176,19.9569056 5.40441176,16.4451292 L5.40441176,16.4451292 L5.40441176,3.88922857 L8.72712418,3.88922857 Z M23.499183,3.88918012 L23.499183,22.662472 L20.1764706,22.662472 L20.1764706,3.88918012 L23.499183,3.88918012 Z M29.6642157,10.2276894 L29.6642157,22.662472 L26.3415033,22.662472 L26.3415033,10.2276894 L29.6642157,10.2276894 Z M35.8292484,3.88922857 L35.8292484,15.9070422 L40.2328431,10.2277379 L44.1560458,10.2277379 L39.5633366,16.0817752 L44.5563725,22.6625205 L40.2328431,22.6625205 L35.8292484,16.2783093 L35.8292484,22.6625205 L32.5065359,22.6625205 L32.5065359,3.88922857 L35.8292484,3.88922857 Z M11.7095588,13.4373652 C10.0624542,13.4373652 8.72712418,14.784036 8.72712418,16.4451292 C8.72712418,18.1062224 10.0624542,19.4528932 11.7095588,19.4528932 C13.3566634,19.4528932 14.6919935,18.1062224 14.6919935,16.4451292 C14.6919935,14.784036 13.3566634,13.4373652 11.7095588,13.4373652 Z" id="Combined-Shape" fill="#FFFFFF"></path>
                <path d="M14.9722222,3.06832298 C13.3361667,3.06832298 12.0098039,4.40595031 12.0098039,6.05590062 L12.0098039,6.05590062 C12.0098039,7.70585093 13.3361667,9.04347826 14.9722222,9.04347826 L14.9722222,9.04347826 C16.6082778,9.04347826 17.9346405,7.70585093 17.9346405,6.05590062 L17.9346405,6.05590062 C17.9346405,4.40595031 16.6082778,3.06832298 14.9722222,3.06832298 Z" id="Clip-2" fill="url(#linearGradient-2)"></path>
            </g>
        </g>
    </g>
</svg>