<?xml version="1.0" encoding="UTF-8"?>
<svg width="80px" height="50px" viewBox="0 0 80 50" version="1.1" xmlns="http://www.w3.org/2000/svg" xmlns:xlink="http://www.w3.org/1999/xlink">
    <title>PP_Credit_acceptancemark_80x50</title>
    <g id="Page-1" stroke="none" stroke-width="1" fill="none" fill-rule="evenodd">
        <g id="PP_Credit_acceptancemark_80x50" fill-rule="nonzero">
            <g id="Group">
                <rect id="Rectangle" fill="#FFFFFF" x="0.4" y="0.4" width="79.2" height="49.2"></rect>
                <path d="M79.2,0.8 L79.2,49.3 L0.8,49.3 L0.8,0.8 L79.2,0.8 M80,0 L0,0 L0,50 L80,50 L80,0 L80,0 Z" id="Shape" fill="#BFBFBF"></path>
            </g>
            <g id="Group" transform="translate(4.000000, 12.000000)">
                <path d="M19.2,6.9 C19.5,5 19.2,3.8 18.2,2.6 C17.1,1.3 15.1,0.8 12.5,0.8 L5,0.8 C4.5,0.8 4,1.2 3.9,1.7 L0.9,21.4 C0.8,21.8 1.1,22.1 1.5,22.1 L6.1,22.1 L5.8,24.1 C5.7,24.4 6,24.7 6.4,24.7 L10.3,24.7 C10.8,24.7 11.2,24.4 11.2,23.9 L11.2,23.7 L11.9,19.1 L11.9,18.8 C12,18.3 12.4,18 12.8,18 L13.4,18 C17.2,18 20.1,16.5 21,12 C21.4,10.1 21.2,8.6 20.2,7.5 C20,7.4 19.6,7.1 19.2,6.9 L19.2,6.9" id="Path" fill="#009CDE"></path>
                <path d="M19.2,6.9 C19.5,5 19.2,3.8 18.2,2.6 C17.1,1.3 15.1,0.8 12.5,0.8 L5,0.8 C4.5,0.8 4,1.2 3.9,1.7 L0.9,21.4 C0.8,21.8 1.1,22.1 1.5,22.1 L6.1,22.1 L7.3,14.7 L7.3,14.9 C7.4,14.4 7.8,14 8.4,14 L10.6,14 C14.9,14 18.3,12.2 19.3,7.2 C19.2,7.2 19.2,7 19.2,6.9" id="Path" fill="#012169"></path>
                <path d="M8.5,6.9 C8.5,6.6 8.8,6.3 9,6.2 C9.1,6.1 9.3,6.1 9.4,6.1 L15.3,6.1 C16,6.1 16.6,6.1 17.2,6.2 C17.4,6.2 17.5,6.3 17.7,6.3 C17.9,6.3 18,6.4 18.2,6.4 C18.3,6.4 18.3,6.4 18.4,6.5 C18.7,6.6 19,6.7 19.2,6.8 C19.5,4.9 19.2,3.7 18.2,2.5 C17.1,1.2 15.1,0.7 12.5,0.7 L5,0.7 C4.5,0.7 4,1.1 3.9,1.6 L0.9,21.4 C0.8,21.8 1.1,22.1 1.5,22.1 L6.1,22.1 L7.3,14.7 L8.5,6.9 Z" id="Path" fill="#003087"></path>
            </g>
            <g id="Group" transform="translate(28.000000, 24.000000)" fill="#003087">
                <path d="M27.3,1.1 C27.3,0.9 27.5,0.8 27.7,0.8 L31.3,0.8 C34.3,0.8 36.4,3.1 35.9,6.1 C35.4,9.1 32.6,11.4 29.6,11.4 L26,11.4 C25.9,11.4 25.8,11.3 25.8,11.1 L27.3,1.1 Z M28.8,9.1 L29.4,9.1 C31.1,9.1 32.6,8.2 33,6.1 C33.3,4.2 32.2,3.1 30.4,3.1 L30,3.1 C29.9,3.1 29.8,3.2 29.8,3.3 L28.8,9.1 Z" id="Shape"></path>
                <path d="M22.7,3.5 L22.4,5 L25.3,5 C25.4,5 25.5,5.1 25.5,5.3 L25.2,7 C25.2,7.2 25,7.3 24.8,7.3 L22.3,7.3 C22.1,7.3 21.9,7.4 21.9,7.6 L21.7,9.1 L24.7,9.1 C24.8,9.1 24.9,9.2 24.9,9.4 L24.6,11.2 C24.6,11.4 24.4,11.5 24.2,11.5 L18.7,11.5 C18.6,11.5 18.5,11.4 18.5,11.2 L20.1,1.1 C20.1,0.9 20.3,0.8 20.5,0.8 L26,0.8 C26.1,0.8 26.2,0.9 26.2,1.1 L25.9,2.9 C25.9,3.1 25.7,3.2 25.5,3.2 L23,3.2 C22.8,3.2 22.7,3.3 22.7,3.5 Z" id="Path"></path>
                <path d="M38.3,11.5 L36.1,11.5 C36,11.5 35.9,11.4 35.9,11.2 L37.5,1.1 C37.5,0.9 37.7,0.8 37.9,0.8 L40.1,0.8 C40.2,0.8 40.3,0.9 40.3,1.1 L38.7,11.2 C38.7,11.4 38.5,11.5 38.3,11.5 Z" id="Path"></path>
                <path d="M17.9,11.5 L15,11.5 C14.9,11.5 14.8,11.4 14.7,11.3 L12.8,7.4 L12.8,7.4 L12.2,11.2 C12.2,11.4 12,11.5 11.9,11.5 L9.7,11.5 C9.6,11.5 9.5,11.4 9.5,11.2 L11.1,1 C11.1,0.8 11.3,0.7 11.4,0.7 L15.3,0.7 C17.4,0.7 18.9,1.7 18.5,4 C18.3,5.5 17.2,6.7 15.7,7 L18.2,11 C18.2,11.3 18.1,11.5 17.9,11.5 Z M13.1,5.6 L13.4,5.6 C14.3,5.6 15.4,5.4 15.5,4.3 C15.7,3.1 15.1,3 14.1,3 L13.7,3 C13.6,3 13.5,3.1 13.5,3.2 L13.1,5.6 Z" id="Shape"></path>
                <path d="M44.2,11.5 L42,11.5 C41.9,11.5 41.8,11.4 41.8,11.2 L43.1,3.1 L41.1,3.1 C41,3.1 40.9,3 40.9,2.8 L41.2,1 C41.2,0.8 41.4,0.7 41.6,0.7 L48.4,0.7 C48.5,0.7 48.6,0.8 48.6,1 L48.3,2.8 C48.3,3 48.1,3.1 47.9,3.1 L45.9,3.1 L44.6,11.1 C44.6,11.4 44.4,11.5 44.2,11.5 Z" id="Path"></path>
                <path d="M9.6,3.9 C9.6,4.1 9.3,4.2 9.2,4 C8.7,3.5 8,3.3 7.3,3.3 C5.6,3.3 4.3,4.6 4,6.3 C3.7,8 4.7,9.2 6.4,9.2 C7.1,9.2 7.9,8.9 8.5,8.5 C8.7,8.4 8.9,8.5 8.9,8.7 L8.5,11.1 C8.5,11.2 8.4,11.4 8.2,11.4 C7.4,11.6 6.7,11.8 5.9,11.8 C1.3,11.8 0.6,7.9 0.8,6.2 C1.5,1.5 5.3,0.4 7.6,0.6 C8.4,0.6 9,0.7 9.7,1 C9.9,1.1 10,1.3 10,1.5 L9.6,3.9 Z" id="Path"></path>
            </g>
            <g id="Group" transform="translate(30.000000, 14.000000)">
                <path d="M21.4,0.1 L19,0.1 C18.8,0.1 18.7,0.2 18.7,0.4 L17.7,6.6 C17.7,6.7 17.8,6.8 17.9,6.8 L19.1,6.8 C19.2,6.8 19.3,6.7 19.3,6.6 L19.6,4.9 C19.6,4.7 19.8,4.6 19.9,4.6 L20.7,4.6 C22.3,4.6 23.2,3.8 23.4,2.3 C23.5,1.6 23.4,1.1 23.1,0.7 C22.8,0.3 22.2,0.1 21.4,0.1 Z M21.7,2.4 C21.6,3.3 20.9,3.3 20.3,3.3 L19.9,3.3 L20.2,1.7 C20.2,1.6 20.3,1.5 20.4,1.5 L20.6,1.5 C21,1.5 21.4,1.5 21.7,1.7 C21.7,1.9 21.8,2.1 21.7,2.4 Z" id="Shape" fill="#009CDE"></path>
                <path d="M4.3,0.1 L1.9,0.1 C1.7,0.1 1.6,0.2 1.6,0.4 L0.6,6.6 C0.6,6.7 0.7,6.8 0.8,6.8 L1.9,6.8 C2.1,6.8 2.2,6.7 2.2,6.5 L2.5,4.8 C2.5,4.6 2.7,4.5 2.8,4.5 L3.6,4.5 C5.2,4.5 6.1,3.7 6.3,2.2 C6.4,1.5 6.3,1 6,0.6 C5.7,0.3 5.1,0.1 4.3,0.1 Z M4.6,2.4 C4.5,3.3 3.8,3.3 3.2,3.3 L2.8,3.3 L3.1,1.7 C3.1,1.6 3.2,1.5 3.3,1.5 L3.5,1.5 C3.9,1.5 4.3,1.5 4.6,1.7 C4.6,1.9 4.6,2.1 4.6,2.4 Z" id="Shape" fill="#003087"></path>
                <path d="M11.5,2.3 L10.3,2.3 C10.2,2.3 10.1,2.4 10.1,2.5 L10,2.8 L10,2.7 C9.8,2.3 9.2,2.2 8.6,2.2 C7.3,2.2 6.2,3.2 6,4.5 C5.9,5.2 6,5.8 6.4,6.3 C6.8,6.7 7.3,6.9 7.9,6.9 C8.9,6.9 9.5,6.2 9.5,6.2 L9.4,6.5 C9.4,6.6 9.5,6.7 9.6,6.7 L10.6,6.7 C10.8,6.7 10.9,6.6 10.9,6.4 L11.5,2.5 C11.7,2.5 11.6,2.3 11.5,2.3 Z M9.9,4.6 C9.8,5.3 9.3,5.7 8.6,5.7 C8.3,5.7 8,5.6 7.8,5.4 C7.6,5.2 7.6,4.9 7.6,4.6 C7.7,3.9 8.2,3.5 8.9,3.5 C9.2,3.5 9.5,3.6 9.7,3.8 C9.8,4 9.9,4.3 9.9,4.6 Z" id="Shape" fill="#003087"></path>
                <path d="M28.6,2.3 L27.4,2.3 C27.3,2.3 27.2,2.4 27.2,2.5 L27.1,2.8 L27,2.7 C26.8,2.3 26.2,2.2 25.6,2.2 C24.3,2.2 23.2,3.2 23,4.5 C22.9,5.2 23,5.8 23.4,6.3 C23.8,6.7 24.3,6.9 24.9,6.9 C25.9,6.9 26.5,6.2 26.5,6.2 L26.4,6.5 C26.4,6.6 26.5,6.7 26.6,6.7 L27.6,6.7 C27.8,6.7 27.9,6.6 27.9,6.4 L28.5,2.5 C28.8,2.5 28.7,2.3 28.6,2.3 Z M27,4.6 C26.9,5.3 26.4,5.7 25.7,5.7 C25.4,5.7 25.1,5.6 24.9,5.4 C24.7,5.2 24.7,4.9 24.7,4.6 C24.8,3.9 25.3,3.5 26,3.5 C26.3,3.5 26.6,3.6 26.8,3.8 C27,4 27.1,4.3 27,4.6 Z" id="Shape" fill="#009CDE"></path>
                <path d="M17.6,2.3 L16.4,2.3 C16.3,2.3 16.2,2.4 16.1,2.4 L14.5,4.8 L13.8,2.5 C13.8,2.4 13.6,2.3 13.5,2.3 L12.4,2.3 C12.3,2.3 12.2,2.4 12.2,2.6 L13.5,6.3 L12.3,8 C12.2,8.1 12.3,8.3 12.5,8.3 L13.7,8.3 C13.8,8.3 13.9,8.2 14,8.2 L17.9,2.6 C17.9,2.5 17.8,2.3 17.6,2.3 Z" id="Path" fill="#003087"></path>
                <path d="M30,0.3 L29,6.6 C29,6.7 29.1,6.8 29.2,6.8 L30.2,6.8 C30.4,6.8 30.5,6.7 30.5,6.5 L31.5,0.3 C31.5,0.2 31.4,0.1 31.3,0.1 L30.2,0.1 C30.1,0.1 30,0.2 30,0.3 Z" id="Path" fill="#009CDE"></path>
            </g>
        </g>
    </g>
</svg>