<?xml version="1.0" encoding="UTF-8"?>
<svg width="80px" height="50px" viewBox="0 0 80 50" version="1.1" xmlns="http://www.w3.org/2000/svg" xmlns:xlink="http://www.w3.org/1999/xlink">
    <title>Giropay_acceptancemark_80x50</title>
    <g id="Page-1" stroke="none" stroke-width="1" fill="none" fill-rule="evenodd">
        <g id="Giropay_acceptancemark_80x50">
            <rect id="Rectangle" fill="#FFFFFF" fill-rule="nonzero" x="0.38" y="0.38" width="79.25" height="49.25"></rect>
            <path d="M79.25,0.75 L79.25,49.25 L0.75,49.25 L0.75,0.75 L79.25,0.75 M80,0 L0,0 L0,50 L80,50 L80,0 Z" id="Shape" fill="#BFBFBF" fill-rule="nonzero"></path>
            <g id="Giropay" transform="translate(10.000000, 12.000000)">
                <path d="M0.0485052988,4.66119138 C0.0485052988,2.09222708 2.12902174,0.00933576963 4.69412828,0.00933576963 L55.3234715,0.00933576963 C57.8896803,0.00933576963 59.9690706,2.09222708 59.9690706,4.66119138 L59.9690706,21.2852526 C59.9690706,23.8527219 57.8896803,25.9359985 55.3234715,25.9359985 L4.69412828,25.9359985 C2.12902174,25.9359985 0.0485052988,23.8527219 0.0485052988,21.2852526 L0.0485052988,4.66119138 L0.0485052988,4.66119138 Z" id="_92653320" fill="#000268"></path>
                <path d="M1.95517995,4.82036195 L1.95517995,21.1276014 C1.95517995,22.7326433 3.25562557,24.034417 4.85974897,24.034417 L31.3849373,24.034417 L31.3849373,1.91354603 L4.85974897,1.91354603 C3.25562557,1.91354603 1.95517995,3.21529585 1.95517995,4.82036195 L1.95517995,4.82036195 Z M38.2385635,12.8925274 C38.2385635,13.9307775 37.7282077,14.6443441 36.8832548,14.6443441 C36.1367871,14.6443441 35.5145236,13.9307775 35.5145236,12.9799746 C35.5145236,12.0040421 36.0617905,11.2784658 36.8832548,11.2784658 C37.754333,11.2784658 38.2385635,12.0291961 38.2385635,12.8925274 Z M33.2773508,18.8472659 L35.5145236,18.8472659 L35.5145236,15.3064695 L35.5395227,15.3064695 C35.9633053,16.0823531 36.8093844,16.3698729 37.5924277,16.3698729 C39.5192354,16.3698729 40.5510927,14.7689549 40.5510927,12.8422195 C40.5510927,11.2664554 39.5692336,9.55141717 37.7782052,9.55141717 C36.7594106,9.55141717 35.8144627,9.96470555 35.3656809,10.8783204 L35.3406818,10.8783204 L35.3406818,9.7027011 L33.2773508,9.7027011 L33.2773508,18.8472659 Z M43.6067337,14.1556176 C43.6067337,13.5306321 44.2028719,13.2937816 44.9624023,13.2937816 C45.2977901,13.2937816 45.6216014,13.3174403 45.9073508,13.330946 C45.9073508,14.0936859 45.372763,14.8695463 44.5266832,14.8695463 C44.0044153,14.8695463 43.6067337,14.6071798 43.6067337,14.1556176 Z M48.1195488,16.2201082 C48.0206794,15.7077475 47.9956809,15.1938684 47.9956809,14.6815078 L47.9956809,12.2543983 C47.9956809,10.265369 46.5665256,9.55141717 44.9124284,9.55141717 C43.9555441,9.55141717 43.1225269,9.68917157 42.3264216,10.014989 L42.3644834,11.5419649 C42.9841103,11.1909942 43.7067051,11.0532391 44.4278144,11.0532391 C45.2347292,11.0532391 45.8939283,11.2916094 45.9073508,12.1800948 C45.6216014,12.1297868 45.2227935,12.0914892 44.8624309,12.0914892 C43.6697939,12.0914892 41.5184036,12.3298595 41.5184036,14.3185267 C41.5184036,15.7329015 42.6618095,16.3698729 43.9424814,16.3698729 C44.8624309,16.3698729 45.4846708,16.008411 45.9942595,15.1938684 L46.0192586,15.1938684 C46.0192586,15.5328288 46.0558099,15.8691368 46.0692561,16.2201082 L48.1195488,16.2201082 Z M49.1263833,18.8472659 C49.5867172,18.9478812 50.0463328,18.9985505 50.5186032,18.9985505 C52.5704056,18.9985505 53.0546124,17.409257 53.6888124,15.7700414 L56.0644018,9.7027011 L53.8257193,9.7027011 L52.495409,13.9559315 L52.4704099,13.9559315 L51.0778065,9.7027011 L48.6667921,9.7027011 L51.28971,16.3698729 C51.1278041,16.9456845 50.7055076,17.2715019 50.1578807,17.2715019 C49.8460059,17.2715019 49.5736789,17.2332043 49.2748667,17.1337468 L49.1263833,18.8472659 Z" id="_92186184" fill="#FFFFFF"></path>
                <path d="M7.42075671,12.905671 C7.42075671,12.0171857 7.85647576,11.2784658 8.6894929,11.2784658 C9.69637475,11.2784658 10.1186719,12.0914892 10.1186719,12.8170662 C10.1186719,13.8181764 9.48447193,14.4934454 8.6894929,14.4934454 C8.01838174,14.4934454 7.42075671,13.9187672 7.42075671,12.905671 Z M12.2823578,9.7027011 L10.2555781,9.7027011 L10.2555781,10.8783204 L10.2320652,10.8783204 C9.75828501,10.0773066 8.98681894,9.55141717 8.03031747,9.55141717 C6.01657678,9.55141717 5.10858737,11.0040651 5.10858737,12.9428109 C5.10858737,14.8695463 6.21541759,16.2201082 7.99189651,16.2201082 C8.88833303,16.2201082 9.63444081,15.8691368 10.1686458,15.1064206 L10.1936442,15.1064206 L10.1936442,15.4573675 C10.1936442,16.732854 9.49753461,17.3458299 8.20528613,17.3458299 C7.27227396,17.3458299 6.69964803,17.1457572 6.01657678,16.808316 L5.904669,18.5852621 C6.42583495,18.7733245 7.30884893,18.9985505 8.37912785,18.9985505 C10.9901094,18.9985505 12.2823578,18.1348332 12.2823578,15.4573675 L12.2823578,9.7027011 Z M16.0647166,6.98807173 L13.8264169,6.98807173 L13.8264169,8.6392977 L16.0647166,8.6392977 L16.0647166,6.98807173 Z M13.8275432,16.2201082 L16.0647166,16.2201082 L16.0647166,9.7027011 L13.8275432,9.7027011 L13.8275432,16.2201082 Z M22.2961752,9.62687843 C22.0723353,9.59007618 21.7985222,9.55141717 21.538131,9.55141717 C20.5682077,9.55141717 20.0090043,10.0773066 19.6232591,10.9034743 L19.59826,10.9034743 L19.59826,9.7027011 L17.5595445,9.7027011 L17.5595445,16.2201082 L19.7971008,16.2201082 L19.7971008,13.4687004 C19.7971008,12.1921045 20.3824295,11.4293638 21.4262232,11.4293638 C21.6881006,11.4293638 21.9354284,11.4293638 22.1842674,11.5033059 L22.2961752,9.62687843 Z M26.1494557,14.7941089 C25.1175977,14.7941089 24.6953012,13.9307775 24.6953012,12.9679642 C24.6953012,11.9920317 25.1175977,11.1287004 26.1494557,11.1287004 C27.1824392,11.1287004 27.6050956,11.9920317 27.6050956,12.9679642 C27.6050956,13.9307775 27.1824392,14.7941089 26.1494557,14.7941089 Z M26.1494557,16.3698729 C28.2881425,16.3698729 29.9172649,15.1199263 29.9172649,12.9679642 C29.9172649,10.8028836 28.2881425,9.55141717 26.1494557,9.55141717 C24.0111274,9.55141717 22.3831319,10.8028836 22.3831319,12.9679642 C22.3831319,15.1199263 24.0111274,16.3698729 26.1494557,16.3698729 Z" id="_47303032" fill="#FF0007"></path>
            </g>
        </g>
    </g>
</svg>