<?xml version="1.0" encoding="UTF-8"?>
<svg width="80px" height="50px" viewBox="0 0 80 50" version="1.1" xmlns="http://www.w3.org/2000/svg" xmlns:xlink="http://www.w3.org/1999/xlink">
    <title>Mastercard_acceptancemark_80x50</title>
    <g id="Page-1" stroke="none" stroke-width="1" fill="none" fill-rule="evenodd">
        <g id="Mastercard_acceptancemark_80x50" fill-rule="nonzero">
            <rect id="Rectangle" fill="#FFFFFF" x="0" y="0" width="79.25" height="49.25"></rect>
            <path d="M79.25,0.75 L79.25,49.25 L0.75,49.25 L0.75,0.75 L79.25,0.75 M80,0 L0,0 L0,50 L80,50 L80,0 Z" id="Shape" fill="#BFBFBF"></path>
            <g id="mc_symbol" transform="translate(10.000000, 6.000000)">
                <rect id="Rectangle" fill="#FF5F00" x="20.8617949" y="4.12575342" width="17.4781197" height="28.6927397"></rect>
                <path d="M22.6620513,18.4746575 C22.6576628,12.8765076 25.2144865,7.58721934 29.595812,4.13082192 C22.1526293,-1.74860389 11.4639205,-0.892214679 5.04142287,6.09814223 C-1.38107479,13.0884991 -1.38107479,23.8658844 5.04142287,30.8562413 C11.4639205,37.8465982 22.1526293,38.7029875 29.595812,32.8235616 C25.2130922,29.3660666 22.6561123,24.0745861 22.6620513,18.4746575 Z" id="Path" fill="#EB001B"></path>
                <path d="M57.2350427,30.0728767 L57.2350427,29.2443053 L57.4871795,29.2443053 L57.4871795,29.0728767 L56.887094,29.0728767 L56.887094,29.2443053 L57.1241026,29.2443053 L57.1241026,30.0728767 L57.2350427,30.0728767 Z M58.3999145,30.0728767 L58.3999145,29.0728767 L58.2183761,29.0728767 L58.0065812,29.7871624 L57.7947863,29.0728767 L57.6132479,29.0728767 L57.6132479,30.0728767 L57.744359,30.0728767 L57.744359,29.3157339 L57.9410256,29.9657339 L58.0771795,29.9657339 L58.2738462,29.3157339 L58.2738462,30.0728767 L58.3999145,30.0728767 Z" id="Shape" fill="#F79E1B"></path>
                <path d="M58.9697436,18.4746575 C58.9697436,25.4607544 55.0008191,31.8335077 48.7490048,34.8863846 C42.4971905,37.9392614 35.0599128,37.1362892 29.595812,32.8184932 C33.9752258,29.3591613 36.5322419,24.0705763 36.5322419,18.4721233 C36.5322419,12.8736703 33.9752258,7.58508524 29.595812,4.12575342 C35.0599128,-0.192042583 42.4971905,-0.995014858 48.7490048,2.057862 C55.0008191,5.11073887 58.9697436,11.4834921 58.9697436,18.469589 L58.9697436,18.4746575 Z" id="Path" fill="#F79E1B"></path>
            </g>
        </g>
    </g>
</svg>