<?xml version="1.0" encoding="UTF-8"?>
<svg width="80px" height="50px" viewBox="0 0 80 50" version="1.1" xmlns="http://www.w3.org/2000/svg" xmlns:xlink="http://www.w3.org/1999/xlink">
    <title>MyBank_acceptancemark_80x50</title>
    <g id="Page-1" stroke="none" stroke-width="1" fill="none" fill-rule="evenodd">
        <g id="MyBank_acceptancemark_80x50" fill-rule="nonzero">
            <rect id="Rectangle" fill="#FFFFFF" x="0.38" y="0.38" width="79.25" height="49.25"></rect>
            <path d="M79.25,0.75 L79.25,49.25 L0.75,49.25 L0.75,0.75 L79.25,0.75 M80,0 L0,0 L0,50 L80,50 L80,0 Z" id="Shape" fill="#BFBFBF"></path>
            <g id="mybank-logo-color-" transform="translate(12.000000, 9.000000)">
                <path d="M39.2777778,12.9544828 C37.0888889,12.9324138 36.0555556,14.1903448 36.0555556,14.1903448 C35.3888889,14.8965517 35.8222222,15.8455172 36.4666667,15.9117241 C37.4,16.0110345 37.4,15.2275862 38.8333333,14.8855172 C40.1,14.5765517 40.1555556,15.7462069 40.1555556,15.7462069 C34.7666667,15.6137931 35.0222222,20.1048276 36.8555556,21.0537931 C38.6111111,21.9696552 40.2555556,20.8110345 40.2555556,20.8110345 C40.2555556,20.8110345 40.3222222,21.4289655 41.1888889,21.4289655 C42.1888889,21.4289655 42.1888889,20.4468966 42.1888889,20.4468966 L42.1888889,16.0772414 C42.1222222,12.8662069 39.2777778,12.9544828 39.2777778,12.9544828 Z M38.8555556,19.2772414 C38.8555556,19.2772414 37.4444444,19.5641379 37.4555556,18.56 C37.4666667,17.5558621 40.0222222,17.622069 40.2888889,17.6993103 C40.2888889,17.6993103 40.3666667,18.8358621 38.8555556,19.2772414 L38.8555556,19.2772414 Z" id="Shape" fill="#334B66"></path>
                <path d="M56.6777778,19.6634483 L54.4777778,16.3751724 L56.0888889,14.8634483 C56.0888889,14.8634483 56.8333333,14.1793103 56.2222222,13.4951724 C55.5444444,12.7448276 54.7333333,13.4841379 54.7333333,13.4841379 L52.7,15.36 L52.7,11.6082759 C52.7,11.0675862 52.2555556,10.6372414 51.7222222,10.6372414 C51.1777778,10.6372414 50.7444444,11.0786207 50.7444444,11.6082759 L50.7444444,20.4468966 C50.7444444,20.9875862 51.1888889,21.417931 51.7222222,21.417931 C52.2666667,21.417931 52.7,20.9765517 52.7,20.4468966 L52.7,18.0855172 L53.0666667,17.7213793 L55.0555556,20.8110345 C55.0555556,20.8110345 55.7,21.8813793 56.6555556,21.1972414 C57.3888889,20.6896552 56.6777778,19.6634483 56.6777778,19.6634483 Z" id="Path" fill="#334B66"></path>
                <path d="M49.6666667,16.0662069 C49.6666667,12.8772414 46.9888889,12.4248276 45.1666667,13.44 C45.1666667,13.44 45.1666667,13.44 45.1666667,13.4510345 C44.9888889,12.9324138 44.4222222,12.6565517 43.9,12.8331034 C43.4888889,12.9765517 43.2222222,13.3517241 43.2222222,13.782069 L43.2222222,20.4358621 C43.2222222,20.9875862 43.6666667,21.4289655 44.2222222,21.4289655 C44.7777778,21.4289655 45.2222222,20.9875862 45.2222222,20.4358621 L45.2111111,15.9448276 C45.4,15.7351724 45.6111111,15.5475862 45.8444444,15.382069 C46.7888889,14.72 47.6777778,14.9517241 47.6777778,16.0772414 L47.7,20.457931 C47.7222222,20.9986207 48.1777778,21.4289655 48.7222222,21.4068966 C49.2444444,21.3848276 49.6555556,20.9765517 49.6777778,20.457931 L49.6666667,16.0662069 Z" id="Path" fill="#334B66"></path>
                <path d="M20.8222222,21.5503448 C20.9555556,21.3517241 21.0444444,21.1310345 21.0888889,20.8993103 L18.8222222,15.017931 C18.8222222,15.017931 18.4111111,13.8813793 19.3222222,13.5393103 C20.2777778,13.1862069 20.6333333,14.0910345 20.7,14.2786207 L22.1333333,18.0634483 L23.4444444,14.2896552 C23.4444444,14.2896552 23.8222222,13.12 24.8666667,13.5282759 C25.7333333,13.8703448 25.2888889,15.0289655 25.2888889,15.0289655 C25.2888889,15.0289655 23.9444444,18.9682759 22.8222222,21.8151724 C22.1555556,23.5255172 21.5777778,23.6910345 20.9222222,23.8455172 C20.0444444,24.0551724 18.3888889,23.9558621 18.3888889,22.8744828 C18.3888889,22.0248276 19.2666667,21.9696552 19.6666667,21.9806897 C19.6888889,22.0027586 20.5111111,22.0689655 20.8222222,21.5503448 Z" id="Path" fill="#2ABAEA"></path>
                <path d="M15.5555556,11.6634483 L13.4888889,17.3351724 L11.2333333,11.6965517 C11.2333333,11.6965517 10.9,10.626123 9.95555556,10.626123 C8.86666667,10.626123 8.9,11.4868966 8.87777778,11.6965517 C8.85555556,11.9062069 8.87777778,20.5131034 8.87777778,20.5131034 C8.87777778,20.5131034 8.86666667,21.417931 9.86666667,21.417931 C10.8888889,21.417931 10.8444444,20.502069 10.8444444,20.502069 C10.8444444,20.502069 10.8444444,15.9558621 10.8444444,15.9558621 L12.5111111,20.502069 C12.5111111,20.502069 12.7555556,21.3958621 13.5222222,21.3848276 C14.2888889,21.3737931 14.5111111,20.502069 14.5111111,20.502069 L15.9,15.9668966 L15.9,20.502069 C15.9,20.502069 15.9,21.417931 16.9111111,21.417931 C17.8888889,21.417931 17.8888889,20.502069 17.8888889,20.502069 L17.8888889,11.6965517 C17.8888889,11.6965517 17.8888889,10.6151724 16.8333333,10.626123 C15.9555556,10.6372414 15.6222222,11.4758621 15.5555556,11.6634483 C15.5555556,11.6855172 15.5555556,11.6965517 15.5555556,11.6965517" id="Path" fill="#2ABAEA"></path>
                <path d="M57,24.8937931 L39.5222222,24.8937931 L26.6888889,24.8937931 L26.7,24.9048276 C21.7444444,30.6758621 13.0111111,31.36 7.2,26.4386207 C1.38888889,21.5172414 0.688888889,12.8551724 5.64444444,7.08413793 C10.6,1.31310345 19.3333333,0.617931034 25.1444444,5.55034483 C25.7111111,6.03586207 26.2444444,6.55448276 26.7222222,7.12827586 L29.5,7.12827586 C24.5777778,-0.19862069 14.5888889,-2.1737931 7.21111111,2.72551724 C-0.166666667,7.62482759 -2.14444444,17.5448276 2.78888889,24.8717241 C7.72222222,32.1986207 17.7,34.1627586 25.0777778,29.2634483 C26.1222222,28.5682759 27.0777778,27.7627586 27.9333333,26.8468966 L55.6777778,26.8248276 L57,24.8937931 Z" id="Path" fill="#2ABAEA"></path>
                <path d="M33.7444444,15.6358621 C33.8,15.5586207 34.4666667,15.0289655 34.4111111,13.5944828 C34.3,10.7034483 31.7777778,10.7365517 31.2111111,10.7144828 C30.3111111,10.6924138 29.7666667,10.7034483 28.1111111,10.7144828 C26.7111111,10.7255172 26.7222208,11.9944828 26.7222208,11.9944828 L26.7222208,21.417931 L31.4333333,21.417931 C33.9555556,21.417931 34.8888889,20.0386207 34.8888889,18.1075862 C34.8888889,16.1765517 33.7444444,15.6358621 33.7444444,15.6358621 Z M28.7555556,12.7117241 L31.3555556,12.7117241 C31.8777778,12.7227586 32.4222222,12.9986207 32.4222222,13.7710345 C32.4222222,14.5765517 31.9444444,14.8303448 31.3555556,14.8303448 L28.7555556,14.8303448 L28.7555556,12.7117241 Z M31.5444444,19.497931 L28.7555556,19.497931 L28.7555556,16.8496552 L31.5444444,16.8496552 C32.2222222,16.8827586 32.8777778,17.2248276 32.8777778,18.1737931 C32.8777778,19.1448276 32.2777778,19.497931 31.5444444,19.497931 Z" id="Shape" fill="#334B66"></path>
            </g>
        </g>
    </g>
</svg>