<?xml version="1.0" encoding="UTF-8"?>
<svg width="80px" height="50px" viewBox="0 0 80 50" version="1.1" xmlns="http://www.w3.org/2000/svg" xmlns:xlink="http://www.w3.org/1999/xlink">
    <title>Przelewy_acceptancemark_80x50</title>
    <g id="Page-1" stroke="none" stroke-width="1" fill="none" fill-rule="evenodd">
        <g id="Przelewy_acceptancemark_80x50">
            <rect id="Rectangle" fill="#FFFFFF" fill-rule="nonzero" x="0.38" y="0.38" width="79.25" height="49.25"></rect>
            <path d="M79.25,0.75 L79.25,49.25 L0.75,49.25 L0.75,0.75 L79.25,0.75 M80,0 L0,0 L0,50 L80,50 L80,0 Z" id="Shape" fill="#BFBFBF" fill-rule="nonzero"></path>
            <g id="logo-przelewy-24" transform="translate(6.000000, 14.000000)">
                <polygon id="Path" fill="#D13239" points="14.2599156 13.2573438 19.8691983 13.2501563 19.6647679 14.5295313 14.9736287 19.018125 18.9116034 19.0109375 18.6820675 20.3909375 12.8827004 20.3945312 13.1265823 18.9678125 17.6240506 14.6517188 14.0339662 14.6517188"></polygon>
                <path d="M8.12341772,11.06875 C8.00147679,10.939375 7.8257384,10.83875 7.63206751,10.7596875 C7.42763713,10.680625 7.20168776,10.623125 6.97932489,10.5835938 C6.69957806,10.5332812 6.42700422,10.5117188 6.23333333,10.5045312 C6.05400844,10.4973438 5.93924051,10.4973438 5.93924051,10.4973438 L3.48607595,10.4973438 L1.66054852,10.4973438 L0.0251054852,20.3945312 L1.55295359,20.3945312 L2.15548523,16.7289063 L5.11793249,16.7432812 C5.11793249,16.7432812 6.27278481,16.79 7.09050633,16.3551563 C7.90822785,15.9203125 8.12700422,14.9320312 8.12700422,14.9320312 C8.12700422,14.9320312 8.21666667,14.5654687 8.29198312,14.1198437 C8.37447257,13.6275 8.45696203,13.038125 8.5,12.7254687 C8.51793249,12.5889062 8.52869198,12.5026562 8.52869198,12.5026562 C8.52869198,12.5026562 8.55021097,12.4020312 8.55021097,12.2439062 C8.55379747,12.0246875 8.52151899,11.6940625 8.34936709,11.3778125 C8.28839662,11.2664062 8.21666667,11.1657813 8.12341772,11.06875 Z M6.94704641,12.8153125 C6.94704641,12.8332813 6.81075949,13.6275 6.6314346,14.5690625 C6.56329114,14.9284375 6.2871308,15.1225 5.97151899,15.1907813 C5.4478903,15.3021875 4.88481013,15.280625 4.88481013,15.280625 L2.41012658,15.2734375 L2.95527426,11.9851563 L5.19683544,11.9923438 C5.19683544,11.9923438 5.34746835,11.98875 5.55907173,11.9923438 C5.79936709,11.9959375 6.1185654,12.0067188 6.38037975,12.0426563 C6.60632911,12.0714063 6.78565401,12.118125 6.84303797,12.19 C6.91835443,12.2834375 6.94704641,12.405625 6.95780591,12.5134375 C6.9721519,12.6715625 6.94704641,12.8045313 6.94704641,12.8153125 Z" id="Shape" fill="#D13239"></path>
                <polygon id="Path" fill="#D13239" points="27.4761603 10.4973438 28.9466245 10.4973438 27.3004219 20.3945312 25.8263713 20.3909375"></polygon>
                <polygon id="Path" fill="#D13239" points="35.3234177 13.2573438 36.7329114 13.25375 37.2314346 18.2778125 39.4012658 13.2465625 41.1407173 13.2501563 41.6535865 18.2957813 43.8198312 13.25375 45.2831224 13.25375 42.1772152 20.3873437 40.4413502 20.3873437 39.9392405 15.3920313 37.7478903 20.3873437 36.0407173 20.3945312"></polygon>
                <g id="Group" transform="translate(19.259494, 13.153125)" fill="#D13239" fill-rule="nonzero">
                    <path d="M5.50168776,0.16171875 C5.08924051,0.02875 4.37552743,-1.91686944e-16 3.76940928,0.0071875 C3.18481013,0.014375 2.91582278,0.043125 2.69704641,0.08984375 C2.69704641,0.08984375 1.65696203,0.24078125 1.06518987,0.97390625 C0.473417722,1.70703125 0.297679325,3.30984375 0.297679325,3.30984375 C0.297679325,3.30984375 -0.0537974684,5.0815625 0.0502109705,5.67453125 C0.154219409,6.26390625 0.337130802,6.81375 1.00421941,7.06890625 C1.67130802,7.32765625 2.23797468,7.31328125 2.23797468,7.31328125 C2.23797468,7.31328125 3.42869198,7.40671875 4.32531646,7.1946875 C5.22194093,6.98265625 5.69535865,6.35015625 5.69535865,6.35015625 C5.69535865,6.35015625 5.90696203,6.07703125 6.05759494,5.75359375 C6.20822785,5.43015625 6.25485232,5.20375 6.26202532,5.175 L6.35527426,4.79046875 L4.83101266,4.7940625 C4.83101266,4.7940625 4.74852321,5.80390625 3.92362869,5.89734375 C3.10232068,5.99078125 2.66118143,5.95484375 2.49978903,5.94765625 C2.34198312,5.94046875 1.45970464,5.98 1.5314346,5.2396875 C1.5314346,5.22890625 1.5314346,5.21453125 1.5350211,5.19296875 C1.57447257,4.35203125 1.66772152,4.1328125 1.66772152,4.1328125 L6.4556962,4.1184375 L6.66012658,2.9325 C6.89683544,1.5884375 6.72827004,0.56421875 5.50168776,0.16171875 Z M5.18248945,2.76359375 L1.90084388,2.76 L2.02995781,2.23890625 C2.02995781,2.23890625 2.14472574,1.82921875 2.37067511,1.65671875 C2.60021097,1.48421875 2.8907173,1.451875 3.16329114,1.42671875 C3.43586498,1.4015625 4.16392405,1.34765625 4.7556962,1.46984375 C4.95295359,1.509375 5.13945148,1.62078125 5.18966245,1.78609375 C5.30443038,2.17421875 5.18248945,2.76359375 5.18248945,2.76359375 Z" id="Shape"></path>
                    <path d="M1.57836624,5.20744047 C1.57836624,5.22849976 1.56836624,5.24955904 1.56836624,5.27061832 C1.55836624,5.38293448 1.57836624,5.20042071 1.57836624,5.20744047 Z" id="Path"></path>
                </g>
                <g id="Group" transform="translate(28.297468, 13.153125)" fill="#D13239" fill-rule="nonzero">
                    <path d="M1.57029536,5.21103422 C1.57029536,5.23209351 1.56029536,5.25315279 1.56029536,5.27421207 C1.56029536,5.38652823 1.57029536,5.20401446 1.57029536,5.21103422 Z" id="Path"></path>
                    <path d="M5.49810127,0.1653125 C5.08565401,0.03234375 4.37194093,0.00359375 3.76582278,0.01078125 C3.18122363,0.01796875 2.91223629,0.04671875 2.69345992,0.0934375 C2.69345992,0.0934375 1.65337553,0.244375 1.06160338,0.9775 C0.469831224,1.710625 0.294092827,3.3134375 0.294092827,3.3134375 C0.294092827,3.3134375 -0.0573839662,5.08515625 0.0466244726,5.678125 C0.150632911,6.2675 0.333544304,6.81734375 1.00063291,7.0725 C1.66772152,7.33125 2.23438819,7.316875 2.23438819,7.316875 C2.23438819,7.316875 3.42510549,7.4103125 4.32172996,7.19828125 C5.21835443,6.98625 5.69177215,6.35375 5.69177215,6.35375 C5.69177215,6.35375 5.90337553,6.080625 6.05400844,5.7571875 C6.20464135,5.43375 6.25126582,5.20734375 6.25843882,5.17859375 L6.35168776,4.7940625 L4.82742616,4.79765625 C4.82742616,4.79765625 4.74493671,5.8075 3.92004219,5.9009375 C3.09873418,5.994375 2.65759494,5.9584375 2.49620253,5.95484375 C2.33839662,5.94765625 1.45611814,5.98359375 1.5278481,5.246875 C1.5278481,5.23609375 1.5278481,5.22171875 1.5314346,5.20015625 C1.57088608,4.35921875 1.66413502,4.14 1.66413502,4.14 L6.4521097,4.125625 L6.65654008,2.9396875 C6.89324895,1.59203125 6.72468354,0.56421875 5.49810127,0.1653125 Z M5.16455696,2.76359375 L1.88291139,2.76 L2.01202532,2.23890625 C2.01202532,2.23890625 2.12679325,1.82921875 2.35274262,1.65671875 C2.57869198,1.48421875 2.87278481,1.451875 3.14535865,1.42671875 C3.41793249,1.4015625 4.14599156,1.34765625 4.73776371,1.46984375 C4.9350211,1.509375 5.12151899,1.62078125 5.17172996,1.78609375 C5.28649789,2.170625 5.16455696,2.76359375 5.16455696,2.76359375 Z" id="Shape"></path>
                </g>
                <path d="M46.9759494,13.2573438 L47.9191983,18.4754687 L50.5839662,13.25375 L52.0831224,13.268125 L48.2419831,20.7251562 C48.2419831,20.7251562 47.5462025,22.0764062 47.1158228,22.4178125 C46.685443,22.7592187 46.4200422,22.91375 46.0685654,22.9496875 C45.7170886,22.985625 45.5736287,23.0107812 45.2364979,22.9496875 L44.8778481,22.885 L45.100211,21.5517187 C45.100211,21.5517187 45.6955696,21.663125 46.0470464,21.5229687 C46.4021097,21.3828125 46.685443,20.7790625 46.685443,20.7790625 L46.8647679,20.4771875 L45.4767932,13.25375 L46.9759494,13.2573438 L46.9759494,13.2573438 Z" id="Path" fill="#D13239"></path>
                <path d="M52.62827,13.9653125 L54.1740506,13.9689062 L54.2672996,13.36875 C54.2672996,13.36875 54.4322785,12.2834375 54.8016878,12.075 C54.9200422,12.0067188 55.1101266,11.945625 55.328903,11.9060938 C55.7341772,11.8342187 56.2470464,11.8270313 56.6666667,11.8414063 C57.3086498,11.8629688 57.5525316,11.8701563 58.2052743,11.945625 C58.8580169,12.0210938 58.693038,12.6535937 58.693038,12.6535937 L58.5639241,13.59875 C58.5639241,13.59875 58.5065401,14.0228125 58.3559072,14.2851562 C58.2232068,14.51875 57.857384,14.676875 57.6457806,14.7451562 C57.1364979,14.9104687 55.3934599,15.3560937 55.3934599,15.3560937 L54.0234177,15.7514062 C54.0234177,15.7514062 53.1805907,15.9957813 52.7107595,16.516875 C52.2373418,17.0415625 52.0508439,17.6345313 51.9862869,17.9435937 C51.92173,18.2526563 51.5594937,20.3909375 51.5594937,20.3909375 L58.9548523,20.3945312 L59.2023207,18.9139062 L53.3527426,18.9210938 L53.4567511,18.3173438 C53.4567511,18.3173438 53.5248945,17.695625 53.7759494,17.4907813 C53.8548523,17.4260937 53.8943038,17.3398438 54.3605485,17.1745313 C54.6402954,17.0739063 55.5943038,16.81875 55.5943038,16.81875 L57.8,16.215 C57.8,16.215 59.0050633,15.9059375 59.478481,15.2446875 C59.9518987,14.5870313 60.1348101,13.325625 60.1348101,13.325625 C60.1348101,13.325625 60.2639241,12.1001563 60.1635021,11.715625 C60.0666667,11.3310938 59.7044304,10.8710938 59.2632911,10.6734375 C58.8221519,10.4757813 58.3630802,10.3607813 57.0324895,10.37875 C55.7018987,10.3967188 55.0419831,10.4578125 54.3677215,10.709375 C53.6934599,10.9573438 53.3025316,11.4101563 53.0550633,12.0498438 C52.7860759,12.6571875 52.62827,13.9653125 52.62827,13.9653125 L52.62827,13.9653125 Z" id="Path" fill="#B3B2B1"></path>
                <path d="M66.5510549,16.718125 L67.5875527,10.49375 L65.7512658,10.49375 L60.0343882,16.64625 L59.7761603,18.2059375 L64.7757384,18.2059375 L64.4099156,20.3909375 L65.9449367,20.3945312 L66.307173,18.2059375 L67.7238397,18.2095312 L67.978481,16.718125 L66.5510549,16.718125 Z M65.0232068,16.7217188 L61.7917722,16.718125 L65.7261603,12.5170312 L65.0232068,16.7217188 Z" id="Shape" fill="#B3B2B1"></path>
                <path d="M11.3656118,11.313125 L16.0746835,11.313125 C16.0746835,11.313125 17.1291139,10.4578125 17.878692,9.90796875 C18.62827,9.358125 19.9911392,8.49203125 19.9911392,8.49203125 L17.3299578,7.245 C17.3299578,7.245 15.0812236,8.639375 14.1272152,9.29703125 C13.2018987,9.904375 11.3656118,11.313125 11.3656118,11.313125 L11.3656118,11.313125 Z" id="Path" fill="#B3B2B1"></path>
                <path d="M21.4867089,7.6115625 L19.3025316,6.138125 C19.3025316,6.138125 21.278692,5.01328125 23.9075949,3.96390625 C26.5329114,2.91453125 27.9352321,2.47609375 27.9352321,2.47609375 L28.3799578,4.5640625 C28.3799578,4.5640625 25.8514768,5.4121875 24.4025316,6.09859375 C22.9033755,6.73828125 21.4867089,7.6115625 21.4867089,7.6115625 L21.4867089,7.6115625 Z" id="Path" fill="#B3B2B1"></path>
                <path d="M29.9938819,4.10765625 L29.6137131,1.969375 C29.6137131,1.969375 32.3107595,1.250625 34.77827,0.790625 C37.2493671,0.330625 40.5238397,0.11140625 40.5238397,0.11140625 L39.4407173,3.4140625 C39.4407173,3.4140625 36.5607595,3.01875 33.8565401,3.38890625 C31.7512658,3.64046875 29.9938819,4.10765625 29.9938819,4.10765625 L29.9938819,4.10765625 Z" id="Path" fill="#B3B2B1"></path>
                <path d="M41.1550633,3.694375 L42.9770042,0.02515625 C42.9770042,0.02515625 46.9687764,-0.05390625 50.4118143,0.4815625 C53.8548523,1.0134375 57.0037975,1.8328125 56.935654,1.86875 L48.2061181,6.44359375 C48.2061181,6.44359375 46.1654008,5.14984375 43.6333333,4.355625 C42.1987342,3.9315625 41.1550633,3.694375 41.1550633,3.694375 L41.1550633,3.694375 Z" id="Path" fill="#B3B2B1"></path>
                <path d="M49.7698312,7.4390625 L51.6886076,8.898125 L67.4584388,8.898125 C67.4584388,8.898125 67.4261603,8.3878125 67.0065401,7.661875 C66.7447257,7.2090625 66.2677215,6.7275 65.7691983,6.22796875 C65.5862869,6.04828125 64.8618143,5.48046875 64.3166667,5.1246875 C62.9251055,4.2190625 62.1468354,3.87046875 60.7014768,3.2128125 L49.7698312,7.4390625 L49.7698312,7.4390625 Z" id="Path" fill="#B3B2B1"></path>
                <path d="M12.3877637,13.2501562 C11.7959916,13.2501562 11.2364979,13.48375 10.7594937,13.7460937 L10.8419831,13.2501562 L9.27468354,13.2501562 L8.01940928,20.355 L9.59029536,20.355 L10.2860759,16.4198437 C10.4295359,15.6220312 11.0248945,14.63375 12.1869198,14.63375 L12.9974684,14.6301562 L13.2413502,13.2501562 L12.3877637,13.2501562 Z" id="Path" fill="#D13239" fill-rule="nonzero"></path>
            </g>
        </g>
    </g>
</svg>