<?xml version="1.0" encoding="UTF-8"?>
<svg width="80px" height="50px" viewBox="0 0 80 50" version="1.1" xmlns="http://www.w3.org/2000/svg" xmlns:xlink="http://www.w3.org/1999/xlink">
    <title>Sofort_acceptancemark_80x50</title>
    <g id="Page-1" stroke="none" stroke-width="1" fill="none" fill-rule="evenodd">
        <g id="Sofort_acceptancemark_80x50" fill-rule="nonzero">
            <rect id="Rectangle" fill="#FFFFFF" x="0.38" y="0.38" width="79.25" height="49.25"></rect>
            <path d="M79.25,0.75 L79.25,49.25 L0.75,49.25 L0.75,0.75 L79.25,0.75 M80,0 L0,0 L0,50 L80,50 L80,0 Z" id="Shape" fill="#BFBFBF"></path>
            <g id="Sofort" transform="translate(7.000000, 19.000000)" fill="#EE7F00">
                <path d="M21.8227633,-1.0658141e-14 C23.2022135,0.00138415272 24.193416,0.424150532 24.7729533,1.25538038 C25.7317243,2.63159729 25.2067815,4.6702697 24.8093341,5.76375035 C23.3037824,9.89318544 20.9254633,11.9868087 17.7407264,11.9868087 L17.7407264,11.9868087 C15.985713,11.9854707 15.1266523,11.2774304 14.712478,10.685336 C13.9828177,9.63711719 13.9744078,8.04640274 14.6882242,6.08607338 C15.067458,5.04745131 15.5504909,4.11960761 16.1146488,3.31822932 C16.9839315,2.08402648 18.0486854,1.15382971 19.2226747,0.596569823 C20.0442395,0.2078536 20.9199806,-1.0658141e-14 21.8227633,-1.0658141e-14 Z M41.0403735,-1.0658141e-14 C42.420753,0.00138415272 43.4112585,0.424150532 43.9915392,1.25538038 C44.9502638,2.63159729 44.4260179,4.6702697 44.0271301,5.76375035 C42.5230652,9.89318544 40.1446997,11.9868087 36.9585689,11.9868087 L36.9585689,11.9868087 C35.2042989,11.9854707 34.34482,11.2774304 33.9317609,10.685336 C33.2013571,9.63711719 33.1928543,8.04640274 33.9067636,6.08607338 C34.2857186,5.04745131 34.768194,4.11960761 35.3331882,3.31822932 C36.2031214,2.08402648 37.2672249,1.15382971 38.4419111,0.596569823 C39.262779,0.2078536 40.1385665,-1.0658141e-14 41.0403735,-1.0658141e-14 Z M65.9836614,0.172603844 L64.9816329,2.93357328 L60.8509489,2.93357328 L57.631318,11.8031778 L54.4155436,11.8031778 L57.6343846,2.93357328 L55.4994405,2.93357328 C55.5941792,2.11249388 55.4342524,1.3957796 55.0178479,0.79311951 C54.8546687,0.557951962 54.6589651,0.352682113 54.432224,0.172603844 L54.432224,0.172603844 L65.9836614,0.172603844 Z M50.9806945,0.172788398 C52.666524,0.174403243 53.7428473,0.549462492 54.2715072,1.31319183 C54.7073799,1.94293518 54.7302863,2.79972571 54.3374852,3.86109402 C53.6988466,5.58796295 52.1561707,6.43958598 51.0915561,6.83656098 C51.2718803,7.11657508 51.4069493,7.45260122 51.5367214,7.75167049 C51.6987921,8.12616289 51.8795942,8.67829206 52.0503414,9.25517174 L52.1623673,9.64174717 C52.4737636,10.737926 52.7264617,11.8011938 52.7264617,11.8011938 L52.7264617,11.8011938 L48.957216,11.8011938 C48.957216,11.8011938 48.0515525,7.87582899 47.9766536,7.70793126 L47.9766536,7.70793126 L46.4422482,11.8011938 L42.8562539,11.8011938 L47.0777738,0.172788398 Z M18.241183,0.16600605 C17.2104402,0.796395338 16.2693717,1.68894315 15.4916683,2.79202059 C15.4613742,2.83575982 15.4341931,2.88226735 15.4045495,2.92623727 L15.4045495,2.92623727 L11.1482286,2.92623727 C10.8530934,2.92623727 10.5999611,2.98506376 10.4071847,3.09182807 C10.215384,3.19882308 10.0825918,3.35472481 10.0279974,3.5488753 C9.97493623,3.73652027 10.0030001,3.92019734 10.0957409,4.07093157 C10.188807,4.2222656 10.3458996,4.34130273 10.550617,4.40008309 C10.6251907,4.42164819 10.7421501,4.45525541 10.8691991,4.49170625 L11.1271807,4.56567389 C11.2776223,4.60917583 11.4119441,4.64820517 11.4764184,4.66695648 L11.5168223,4.67871303 C12.3162241,4.90917446 12.8661642,5.26822367 13.1694769,5.76481153 C13.472836,6.26103028 13.5298001,6.89211165 13.3446437,7.66779083 C12.8532938,9.73068591 11.6922214,10.7617413 10.4817119,11.277615 C9.27124891,11.7934887 8.01139537,11.7934887 7.32280864,11.7934887 L0,11.7934887 L1.08166661,8.81414612 L7.92260393,8.81414612 C8.47040673,8.80962455 8.83207739,8.77723538 9.0770786,8.67849915 C9.32263736,8.57833263 9.45166607,8.41652518 9.53655459,8.16350206 C9.57075161,8.06545791 9.58524817,7.97211988 9.58287854,7.88561033 C9.58099792,7.80217528 9.56079612,7.72015385 9.52368425,7.64527528 C9.4669525,7.53380485 9.37746411,7.4538931 9.27742853,7.39437453 C9.17725356,7.33421003 9.06643849,7.29416187 8.96626353,7.26338755 C8.74187751,7.19600132 8.51716263,7.12969962 8.29212689,7.0644848 C8.05985664,6.99841458 7.86814889,6.9433253 7.85383818,6.93958809 C7.48882216,6.82816379 7.14982561,6.65320689 6.86686386,6.43944757 C6.58413442,6.22504231 6.35799733,5.97031207 6.21851437,5.70067912 C6.10556199,5.47912241 6.05384829,5.22471514 6.06309449,4.92421558 C6.07206192,4.6258384 6.14333669,4.28183031 6.27770867,3.88185631 C6.89785491,2.02381583 7.70273939,1.09454183 8.61509358,0.629927904 C9.52758717,0.16600605 10.5451808,0.16600605 11.5934868,0.16600605 Z M37.5001921,0.16600605 C36.4694028,0.796395338 35.3688256,1.68894315 34.5916797,2.79197445 C34.5613392,2.83571368 34.5340187,2.88319012 34.5037246,2.92692935 L34.5037246,2.92692935 L32.5959613,2.92604571 C32.5289878,2.92602067 32.462549,2.92599624 32.3969068,2.92597249 L30.8304722,2.92549905 C30.4656885,2.92549905 30.2169702,3.12726238 30.1121489,3.38023936 L30.1121489,3.38023936 L29.6123892,4.79392067 L32.7175808,4.79604304 L31.8316178,7.23718092 L28.7160648,7.23464331 L27.0626668,11.7934426 L23.537493,11.7934426 L26.7554047,2.92623727 C27.4215032,1.12702328 28.8312475,0.16600605 30.7252327,0.16600605 L30.7252327,0.16600605 Z M20.977084,2.63062839 C19.8190317,2.63062839 18.861701,3.92697969 18.1231197,5.95360996 C17.1333576,8.66779504 17.5040421,9.33864772 18.5615942,9.34026257 L18.5615942,9.34026257 C19.6490223,9.34026257 20.3704122,8.65349212 21.363752,5.92629602 C22.3307935,3.27213703 22.0784046,2.63228937 20.977084,2.63062839 L20.977084,2.63062839 Z M40.196274,2.63062839 C39.0374317,2.63062839 38.079497,3.92697969 37.3416591,5.95360996 C36.352594,8.66779504 36.7218846,9.33864772 37.7799478,9.34026257 L37.7799478,9.34026257 C38.8675153,9.34026257 39.5889516,8.65349212 40.5815945,5.92629602 C41.549333,3.27213703 41.2968976,2.63228937 40.196274,2.63062839 L40.196274,2.63062839 Z M50.0317737,2.57309377 L49.440156,2.57309377 L48.4003993,5.38527686 L49.0087438,5.38624576 C50.1889127,5.38624576 50.8069681,4.811361 51.1512615,3.882087 C51.5184148,2.89098751 51.1141837,2.57383199 50.0317737,2.57309377 L50.0317737,2.57309377 Z" id="Combined-Shape"></path>
            </g>
        </g>
    </g>
</svg>